inDegrees=no
num_controls=7
num_derivatives=13
num_iterations=57
num_multipliers=7
num_parameters=0
num_slacks=7
num_states=26
objective=0.374235
objective_accelerations=0.030569
objective_balance=0.004697
objective_effort=0.062744
objective_height=0.270458
objective_ligament=0.005767
solver_duration=794.894539
status=Solve_Succeeded
success=true
DataType=double
version=3
OpenSimVersion=4.5
endheader
time	/jointset/ground_pelvis/pelvis_tilt/value	/jointset/ground_pelvis/pelvis_tx/value	/jointset/ground_pelvis/pelvis_ty/value	/jointset/hip_l/hip_flexion_l/value	/jointset/hip_l/hip_adduction_l/value	/jointset/hip_l/hip_rotation_l/value	/jointset/back/lumbar_extension/value	/jointset/patellofemoral_l/patellar_flexion_l/value	/jointset/knee_l/knee_flexion_l/value	/jointset/knee_l/knee_adduction_l/value	/jointset/knee_l/knee_rotation_l/value	/jointset/ankle_l/ankle_angle_l/value	/jointset/subtalar_l/subtalar_angle_l/value	/jointset/ground_pelvis/pelvis_tilt/speed	/jointset/ground_pelvis/pelvis_tx/speed	/jointset/ground_pelvis/pelvis_ty/speed	/jointset/hip_l/hip_flexion_l/speed	/jointset/hip_l/hip_adduction_l/speed	/jointset/hip_l/hip_rotation_l/speed	/jointset/back/lumbar_extension/speed	/jointset/patellofemoral_l/patellar_flexion_l/speed	/jointset/knee_l/knee_flexion_l/speed	/jointset/knee_l/knee_adduction_l/speed	/jointset/knee_l/knee_rotation_l/speed	/jointset/ankle_l/ankle_angle_l/speed	/jointset/subtalar_l/subtalar_angle_l/speed	/forceset/tau_hip_flexion_l	/forceset/tau_hip_adduction_l	/forceset/tau_hip_rotation_l	/forceset/tau_knee_flexion_l	/forceset/tau_ankle_angle_l	/forceset/tau_subtalar_angle_l	/forceset/tau_lumbar_extension	lambda_cid13_p0	lambda_cid13_p1	lambda_cid13_p2	lambda_cid13_p3	lambda_cid13_p4	lambda_cid13_p5	lambda_cid14_p0	/jointset/ground_pelvis/pelvis_tilt/accel	/jointset/ground_pelvis/pelvis_tx/accel	/jointset/ground_pelvis/pelvis_ty/accel	/jointset/hip_l/hip_flexion_l/accel	/jointset/hip_l/hip_adduction_l/accel	/jointset/hip_l/hip_rotation_l/accel	/jointset/back/lumbar_extension/accel	/jointset/patellofemoral_l/patellar_flexion_l/accel	/jointset/knee_l/knee_flexion_l/accel	/jointset/knee_l/knee_adduction_l/accel	/jointset/knee_l/knee_rotation_l/accel	/jointset/ankle_l/ankle_angle_l/accel	/jointset/subtalar_l/subtalar_angle_l/accel	gamma_cid13_p0	gamma_cid13_p1	gamma_cid13_p2	gamma_cid13_p3	gamma_cid13_p4	gamma_cid13_p5	gamma_cid14_p0
1	-0.08363175491290446	-0.07567055629982833	0.4178968589912974	2.094366271977332	-0.2933388864340311	0.1256756977713566	-0.9598957486747058	2.094383269405683	2.094383269405691	0.1726360126831927	-0.174170456055303	0.2307207308359277	0.08755466070269462	0.002460841449056509	-0.001118115897214014	-0.0004155955013175438	0.000320269418615862	0.0003974526995968236	-0.001052210533778434	-0.0001307015449991489	-0.0001638622334898842	-0.000163862233489865	0.001027299273024395	0.0005591099622851437	-0.0031268063027199	-0.0009020305245480409	-0.2902736241224302	-0.05081137172560344	-0.05976792676487227	-0.3468210269118352	0.1141258118508548	0.01160707437358588	0.3476413150789517	-9.403407374655789	4.18019050723457	-9.772844106318372	4.410706516228377	-703.1028898116718	-29.34414079766016	-0.02310350962493599	0.1117133062308981	-0.04685041553338937	-0.02128126777125606	0.01548780770708535	0.03808686433444132	0.004591708441454974	-0.006604932546081995	0.005758272822903861	0.005758272822904014	0.01513747145397897	0.04067741968448129	-0.1281943843797996	-0.009954834467818327	6.843599369002997e-12	-9.111783467543549e-11	9.070691837374254e-11	2.254714958415463e-11	6.568428575429143e-11	-7.717658620526391e-11	2.787969888594464e-12
1.01	-0.0836014829385268	-0.07568405135395692	0.4178916523467574	2.09437016920437	-0.2933332226583349	0.1256654842390786	-0.9598974089047726	2.094381944537105	2.094381944537111	0.1726468560682766	-0.1741632167161903	0.2306830959989488	0.08754488613964234	0.003601216824413916	-0.001578235543350522	-0.0006244182973039653	0.0004514558569787474	0.0007140658001332467	-0.0009814434091824011	-0.0002035187251300062	-9.888914490229907e-05	-9.888914490221608e-05	0.001121664861153658	0.00085009256853388	-0.004396402476633577	-0.001078444597708647	-0.2902916104403932	-0.05096933281659115	-0.0597710588058252	-0.3468181444492586	0.1141878115368685	0.01168800717773511	0.3476924256352022	-9.379527175830445	4.135699404003375	-9.759856204707294	4.347995718692013	-703.1499559599388	-29.42362475684211	-0.02310148685131504	0.1163491767006292	-0.04519383889530129	-0.02048551273776341	0.01077605723141835	0.0252629509875744	0.009677094642966393	-0.007946249258006039	0.007200172791676016	0.007200172791679296	0.003629158381169273	0.01750892174108527	-0.1257784443293507	-0.02531904304770527	1.421766584164395e-11	-3.902377013013401e-10	2.800573969207785e-10	-3.690940693002784e-11	3.210311163145022e-11	-7.245771975488886e-10	2.275706568008465e-11
1.02	-0.08355957730569293	-0.07570206782449521	0.4178843969288126	2.094375146694853	-0.2933250298680182	0.1256562499540816	-0.9598998625343381	2.094381336068597	2.094381336068595	0.1726580517204214	-0.1741542275028857	0.2306328779581443	0.08753258056599696	0.00478757314026995	-0.002022399179152315	-0.0008253501822987586	0.000536322108562893	0.000903255623643279	-0.0008563610776146646	-0.0002893814457165619	-2.058221971516736e-05	-2.058221971502375e-05	0.001097752684833394	0.0009090848006233871	-0.005643447067834997	-0.001408232643169902	-0.290309596758356	-0.0511272939075792	-0.0597741908467749	-0.3468152619866817	0.1142498112228823	0.01176893998188366	0.3477435361914525	-9.355984384170592	4.091250955220341	-9.746856344319948	4.293248974654881	-703.1969359671031	-29.50425576789691	-0.02309951864852844	0.120909494330625	-0.04365921346645085	-0.01970308557292449	0.006223770351318453	0.01260220892916483	0.01545474983579258	-0.009214040637194281	0.008425040142793471	0.008425040142792994	-0.008518081435930362	-0.005720655147362343	-0.1236840678373528	-0.04062962892794851	-1.325404276041966e-10	-6.857413713614138e-10	4.956323400574503e-10	-1.070205300016987e-10	7.967460850663488e-11	-9.922150984383012e-10	-6.987965534187169e-11
1.03	-0.08350583175441147	-0.07572445674270148	0.4178752791400441	2.094380655148819	-0.2933159536217694	0.1256482997347559	-0.9599036214616409	2.094381204029368	2.094381204029367	0.1726682824141227	-0.1741463549179078	0.2305702560565918	0.08751571900526049	0.005943799413557332	-0.002453803804093482	-0.0009861157229383145	0.0005486832405057102	0.0008548851996997297	-0.0007584696768527077	-0.0005027927005703014	-4.069969291499955e-05	-4.069969291485342e-05	0.0009253405047150857	0.0005783688025014466	-0.006881380905880183	-0.002036773539572478	-0.2894191397780473	-0.05122218049284534	-0.05979712668804659	-0.3476947305420565	0.115567036693503	0.01170738765099164	0.3471299908131787	-8.940586592909373	4.066654332775559	-9.767383880044033	3.929767641051953	-703.3355074132605	-29.59358180217377	-0.02309728069219354	0.1103185036257178	-0.04264402419780069	-0.01244948510303118	-0.003760561121669705	-0.02212315451567888	0.003238282283109562	-0.03346297070288367	-0.0124612178550607	-0.01246121785506383	-0.02505968349499143	-0.05980648661096737	-0.1239152637306297	-0.08487034936431156	-2.808712981920633e-10	-9.812081414565304e-10	7.114748797715675e-10	-1.772403731402828e-10	1.280741938613917e-10	-1.255977869629199e-09	-1.636654153109047e-10
1.04	-0.08344105607843745	-0.07575111229459516	0.4178649164565106	2.094385786644954	-0.2933090743770517	0.1256405848188547	-0.9599107261620448	2.094379824600046	2.094379824600042	0.1726760976065876	-0.1741444013758034	0.2304952413722706	0.08749039122968642	0.006993598078761614	-0.002875725916630858	-0.001074329135315159	0.000460930542950965	0.0004638553173744023	-0.0008093003926223499	-0.0009585360671599774	-0.0002700602382627202	-0.000270060238262563	0.000614652436787856	-0.0002747237742746985	-0.00812200362162644	-0.003101475610690857	-0.2885286827977384	-0.05131706707811343	-0.0598200625293112	-0.3485741990974314	0.1168842621641235	0.01164583532009671	0.3465164454349045	-8.525455976890687	4.041675072957834	-9.787359912599902	3.573444510038683	-703.4743179007943	-29.68434190342846	-0.0230951392712198	0.09962397271401049	-0.04176271098569919	-0.005192659920371426	-0.01379899554823096	-0.05592968274718893	-0.01428967347053132	-0.05768046298432578	-0.03342357428681585	-0.03342357428681461	-0.03617325899772156	-0.1101959708781997	-0.12422184337757	-0.127861863871108	1.731176876865929e-11	2.223734348845132e-10	-1.277656168197561e-10	-6.387654746870771e-11	2.031883634766466e-10	4.568128082488006e-10	-3.864278652246969e-11
1.05	-0.08336661459240695	-0.07578161530376236	0.4178538160874239	2.094390028610126	-0.293306719866857	0.1256320514022775	-0.9599216756044424	2.094376147879667	2.094376147879665	0.172680770475237	-0.1741517326675859	0.230408721556802	0.08745404994056956	0.007847159214378722	-0.00319074067524286	-0.001155467091672779	0.0004194225597047604	5.964348859736565e-05	-0.0008754936340689841	-0.001079345104069901	-0.0003957291702734695	-0.000395729170273323	0.0003593304709778069	-0.001094479172085631	-0.009090672659306676	-0.004058273987077061	-0.2888389887300011	-0.05164779581743578	-0.05980928473942308	-0.3483670964764203	0.1179483631837471	0.0116817470349996	0.3473461711280471	-8.173580757219243	3.966557623060367	-9.77777120224931	2.551227437706812	-703.9486766325167	-29.66751114299504	-0.02307013855177365	0.07109122112702165	-0.02125055983641037	-0.01103266830792478	0.005467338318118015	-0.0247770856995835	0.0004992673651351004	0.03351997232455285	0.00829462734590926	0.008294627345904975	-0.01430020416804396	-0.05330714279963376	-0.06949632551250133	-0.06331271456351897	3.294483962777727e-10	1.472800272051678e-09	-9.999774582956185e-10	5.522426785318382e-11	2.79137363850042e-10	2.231370781410192e-09	9.321760441463493e-11
1.06	-0.08328506368759185	-0.07581424440082317	0.4178416126778108	2.094394814303068	-0.2933068295055011	0.125623512736655	-0.9599292729179253	2.094373301105969	2.094373301105966	0.1726840724164743	-0.1741643498770592	0.2303152536726468	0.08741139588968061	0.008415481835654078	-0.003300943495353395	-0.001294937240608487	0.0005696760976953048	-2.89744504438236e-05	-0.0008103502016411933	-0.0002881102862242549	-0.00010407090212014	-0.0001040709021200103	0.0003404669533512995	-0.001331907312580182	-0.009511617358957043	-0.004364027965108804	-0.289149294662263	-0.05197852455675964	-0.05979850694952581	-0.3481599938554096	0.1190124642033701	0.01171765874990003	0.3481758968211902	-7.821879290322604	3.891144673001025	-9.767763094312558	1.53286937580711	-704.423828622292	-29.6514127228694	-0.02304505174188574	0.04257626984566994	-0.000800323285412758	-0.01685909843597461	0.02455330869906599	0.007189095199982501	0.0119776613043491	0.1247283079668854	0.05004186574596101	0.05004186574596105	0.01111843063897774	0.006269480585080563	-0.01467697577159484	0.002347015799787019	-5.922579302557491e-10	-3.63860900651308e-09	2.091199137382759e-09	1.367978634827521e-09	-2.930391150344223e-09	-7.428763983749196e-09	5.183132117819684e-10
